<?xml version="1.0" standalone="no"?><!DOCTYPE svg PUBLIC "-//W3C//DTD SVG 1.1//EN" "http://www.w3.org/Graphics/SVG/1.1/DTD/svg11.dtd"><svg t="1608175769610" class="icon" viewBox="0 0 1024 1024" version="1.1" xmlns="http://www.w3.org/2000/svg" p-id="3328" xmlns:xlink="http://www.w3.org/1999/xlink" width="28" height="28"><defs><style type="text/css"></style></defs><path d="M512 737.92a32 32 0 0 1-32-32v-170.666667a32 32 0 0 1 64 0v170.666667a32 32 0 0 1-32 32zM759.466667 665.813333a32 32 0 0 1-22.613334-9.386666l-120.746666-120.746667A32 32 0 0 1 661.333333 490.666667l120.746667 120.746666a32 32 0 0 1-22.613333 54.613334zM264.106667 666.24a32 32 0 0 1-22.613334-54.613333L362.666667 490.666667a32 32 0 0 1 45.226666 45.226666l-120.746666 120.746667a32 32 0 0 1-23.04 9.6z" p-id="3329" fill="#6b757b"></path><path d="M512 565.333333C276.053333 565.333333 90.026667 349.866667 82.346667 341.333333a32 32 0 0 1 48.64-42.666666c1.706667 1.92 174.933333 202.026667 381.013333 202.026666S891.306667 301.226667 893.013333 298.666667a32 32 0 0 1 48.64 42.666666c-7.68 8.533333-193.706667 224-429.653333 224z" p-id="3330" fill="#6b757b"></path></svg>