<?xml version="1.0" standalone="no"?><!DOCTYPE svg PUBLIC "-//W3C//DTD SVG 1.1//EN" "http://www.w3.org/Graphics/SVG/1.1/DTD/svg11.dtd"><svg t="1606111850751" class="icon" viewBox="0 0 1024 1024" version="1.1" xmlns="http://www.w3.org/2000/svg" p-id="17626" xmlns:xlink="http://www.w3.org/1999/xlink" width="200" height="200"><defs><style type="text/css"></style></defs><path d="M737.41824 413.42976c0-74.9312-54.784-135.68-122.368-135.68s-122.368 60.74368-122.368 135.68 54.784 135.68 122.368 135.68 122.368-60.75392 122.368-135.68z m205.44512 433.97632c0-59.5968-144.27136-121.78432-328.48896-121.78432s-333.55776 66.81088-333.55776 126.40768S430.15168 913.6896 614.4 913.6896s328.46336-6.69184 328.46336-66.28864z" fill="#F4CA1C" p-id="17627"></path><path d="M516.6592 606.08c-134.25664 0-243.47648-119.86432-243.47648-267.19744S382.40256 71.68 516.6592 71.68s243.47648 119.86432 243.47648 267.20256-109.22496 267.19744-243.47648 267.19744z m0-471.28064c-99.5328 0-180.51072 91.55072-180.51072 204.0832s80.97792 204.07808 180.51072 204.07808 180.51072-91.5456 180.51072-204.07808-80.97792-204.0832-180.51072-204.0832zM517.7088 957.44C278.3744 957.44 71.68 957.44 71.68 841.728c0-108.71808 208.42496-204.0832 446.0288-204.0832 111.75936 0 219.136 19.57888 302.32576 55.13216C908.64128 730.624 957.44 781.312 957.44 835.40992 957.44 948.4544 766.85824 957.44 517.7088 957.44z m0-256.68096c-233.88672 0-383.05792 92.55936-383.05792 140.96384 0 17.57696 34.42176 32.65024 94.4384 41.344 71.79776 10.40896 173.18912 11.264 288.62464 11.264 104.09472 0 210.6368-1.73056 284.72832-14.28992 58.49088-9.91744 92.032-26.17856 92.032-44.6208-0.01024-47.48288-143.04768-134.66112-376.76544-134.66112z" fill="#e83015" p-id="17628" data-spm-anchor-id="a313x.7781069.0.i25" class="selected"></path></svg>