<?xml version="1.0" standalone="no"?><!DOCTYPE svg PUBLIC "-//W3C//DTD SVG 1.1//EN" "http://www.w3.org/Graphics/SVG/1.1/DTD/svg11.dtd"><svg t="1608475598500" class="icon" viewBox="0 0 1024 1024" version="1.1" xmlns="http://www.w3.org/2000/svg" p-id="2945" data-spm-anchor-id="a313x.7781069.0.i1" xmlns:xlink="http://www.w3.org/1999/xlink" width="200" height="200"><defs><style type="text/css"></style></defs><path d="M523.702857 523.702857c-29.257143 0-58.514286-5.851429-78.994286-11.702857l-175.542857-61.44 14.628572-43.885714 175.542857 61.44c35.108571 11.702857 96.548571 11.702857 128.731428 0l96.548572-35.108572c40.96-14.628571 76.068571-26.331429 81.92-29.257143 5.851429-2.925714 43.885714-14.628571 81.92-29.257142l43.885714-14.628572c5.851429-2.925714 8.777143-5.851429 11.702857-5.851428-2.925714-2.925714-5.851429-5.851429-11.702857-5.851429L585.142857 219.428571c-32.182857-14.628571-90.697143-14.628571-122.88 0L155.062857 348.16c-5.851429 2.925714-8.777143 5.851429-14.628571 5.851429 2.925714 2.925714 5.851429 2.925714 11.702857 5.851428l102.4 35.108572-11.702857 43.885714-102.4-35.108572c-38.034286-14.628571-46.811429-35.108571-46.811429-46.811428 0-11.702857 5.851429-35.108571 43.885714-49.737143L441.782857 175.542857c43.885714-17.554286 114.102857-17.554286 160.914286 0l307.2 128.731429c38.034286 14.628571 43.885714 38.034286 43.885714 49.737143 0 11.702857-5.851429 35.108571-46.811428 46.811428l-43.885715 14.628572c-40.96 14.628571-76.068571 26.331429-81.92 29.257142-5.851429 2.925714-43.885714 14.628571-81.92 29.257143l-96.548571 35.108572c-20.48 8.777143-49.737143 14.628571-78.994286 14.628571z" fill="#4F6EF2" p-id="2946" data-spm-anchor-id="a313x.7781069.0.i2" class="selected"></path><path d="M228.205714 661.211429l-2.925714-242.834286c0-11.702857 11.702857-23.405714 23.405714-23.405714s23.405714 11.702857 23.405715 23.405714v234.057143c2.925714 0-43.885714 8.777143-43.885715 8.777143zM784.091429 655.36c-11.702857 0 0 0-23.405715 2.925714 0 0 0-5.851429 2.925715-5.851428v-228.205715c0-11.702857 11.702857-23.405714 23.405714-23.405714s23.405714 11.702857 23.405714 23.405714v231.131429h-26.331428z" fill="#4F6EF2" p-id="2947" data-spm-anchor-id="a313x.7781069.0.i0" class="selected"></path><path d="M517.851429 775.314286c-117.028571 0-222.354286-38.034286-283.794286-105.325715l-2.925714-2.925714-2.925715-2.925714c-8.777143-11.702857-5.851429-23.405714 5.851429-32.182857 8.777143-5.851429 23.405714-5.851429 29.257143 5.851428l2.925714 2.925715c52.662857 55.588571 146.285714 87.771429 248.685714 87.771428s196.022857-35.108571 248.685715-87.771428l2.925714-2.925715c8.777143-8.777143 20.48-11.702857 29.257143-5.851428 11.702857 8.777143 14.628571 20.48 5.851428 32.182857l-2.925714 2.925714 2.925714 5.851429c-61.44 64.365714-166.765714 102.4-283.794285 102.4zM239.850057 437.979429l15.447772-44.178286 27.618742 9.654857-15.447771 44.178286z" fill="#4F6EF2" p-id="2948" data-spm-anchor-id="a313x.7781069.0.i3" class="selected"></path><path d="M146.285714 637.805714c-11.702857 0-23.405714-11.702857-23.405714-23.405714v-216.502857c0-11.702857 11.702857-23.405714 23.405714-23.405714s23.405714 11.702857 23.405715 23.405714V614.4c0 14.628571-11.702857 23.405714-23.405715 23.405714z" fill="#BE272D" p-id="2949"></path></svg>