<?xml version="1.0" standalone="no"?><!DOCTYPE svg PUBLIC "-//W3C//DTD SVG 1.1//EN" "http://www.w3.org/Graphics/SVG/1.1/DTD/svg11.dtd"><svg t="1606271888462" class="icon" viewBox="0 0 1024 1024" version="1.1" xmlns="http://www.w3.org/2000/svg" p-id="3390" xmlns:xlink="http://www.w3.org/1999/xlink" width="200" height="200"><defs><style type="text/css"></style></defs><path d="M221.371429 786.285714c2.285714 0 4.571429-0.228571 6.857142-0.571428L420.457143 752c2.285714-0.457143 4.457143-1.485714 6.057143-3.2l484.457143-484.457143a11.382857 11.382857 0 0 0 0-16.114286L721.028571 58.171429c-2.171429-2.171429-5.028571-3.314286-8.114285-3.314286s-5.942857 1.142857-8.114286 3.314286L220.342857 542.628571c-1.714286 1.714286-2.742857 3.771429-3.2 6.057143l-33.714286 192.228572a38.285714 38.285714 0 0 0 10.742858 34.057143c7.542857 7.314286 17.028571 11.314286 27.2 11.314285z m77.028571-199.314285L712.914286 172.571429l83.771428 83.771428-414.514285 414.4-101.6 17.942857 17.828571-101.714285zM932.571429 882.285714H91.428571c-20.228571 0-36.571429 16.342857-36.571428 36.571429v41.142857c0 5.028571 4.114286 9.142857 9.142857 9.142857h896c5.028571 0 9.142857-4.114286 9.142857-9.142857v-41.142857c0-20.228571-16.342857-36.571429-36.571428-36.571429z" p-id="3391" fill="#515151"></path></svg>