<?xml version="1.0" standalone="no"?><!DOCTYPE svg PUBLIC "-//W3C//DTD SVG 1.1//EN" "http://www.w3.org/Graphics/SVG/1.1/DTD/svg11.dtd"><svg t="1606321326552" class="icon" viewBox="0 0 1024 1024" version="1.1" xmlns="http://www.w3.org/2000/svg" p-id="2774" xmlns:xlink="http://www.w3.org/1999/xlink" width="200" height="200"><defs><style type="text/css"></style></defs><path d="M900.042 67.295l-113.18 0c-10.778 0-21.558 10.779-21.558 21.558s10.779 21.558 21.558 21.558l113.18 0 0 809.358L123.958 919.769 123.958 105.411l113.179 0c10.779 0 21.558-10.779 21.558-21.558s-5.39-21.558-21.558-21.558L123.958 62.295c-21.559 0-43.116 21.558-43.116 43.116l0 814.358c0 21.558 21.558 43.115 43.116 43.115l776.084 0c21.558 0 43.115-21.558 43.115-43.115L943.157 110.411C943.157 88.853 921.6 67.295 900.042 67.295l0 71L900.042 67.295zM339.536 105.8l350.316 0c10.778 0 21.558-10.779 21.558-21.558s-10.779-21.558-21.558-21.558l-70.063 0L404.21 62.684l-64.674 0c-10.778 0-21.558 10.779-21.558 21.558C317.979 95.021 323.368 105.8 339.536 105.8L339.536 105.8 339.536 105.8zM447.326 51.905 447.326 51.905M291.031 287.989l441.937 0c10.779 0 21.558-10.779 21.558-21.558s-10.778-21.558-21.558-21.558L291.031 244.873c-10.779 0-21.558 10.779-21.558 21.558S280.252 287.989 291.031 287.989L291.031 287.989 291.031 287.989zM291.031 476.621l441.937 0c10.779 0 21.558-10.779 21.558-21.558 0-10.779-10.778-21.559-21.558-21.559L291.031 433.504c-10.779 0-21.558 10.779-21.558 21.559C269.474 465.842 280.252 476.621 291.031 476.621L291.031 476.621 291.031 476.621zM284.031 665.253l104.937 0c10.779 0 21.558-10.779 21.558-21.559 0-10.778-10.778-21.558-21.558-21.558L284.031 622.136c-10.779 0-21.558 10.779-21.558 21.558C262.474 654.474 273.252 665.253 284.031 665.253L284.031 665.253 284.031 665.253zM871.679 868.958l0.058-0.123L763.05 762.563c21.398-25.233 33.702-56.595 34.71-88.537 2.013-38.905-13.202-79.091-40.683-107.476-23.474-24.772-56.482-41.423-90.524-45.7-6.607-0.9-13.376-1.351-20.116-1.351-33.691 0-66.525 10.953-92.447 30.819-30.046 22.398-50.786 56.02-56.909 92.229-6.072 33.748 0.5 69.957 18.02 99.312 11.984 20.406 29.048 37.938 49.337 50.693 18.623 11.782 40.052 19.483 61.939 22.235 6.567 0.89 13.301 1.34 20.017 1.34 31.079 0 61.827-9.502 86.851-26.788l108.551 106.19 2.007 1.85 0.059-0.051c3.578 2.876 8.11 4.472 12.808 4.472 11.096 0 20.122-8.857 20.122-19.743C876.79 877.232 874.947 872.568 871.679 868.958M761.506 724.011c-17.783 35.554-53.528 61.555-93.313 67.856-18.624 3.171-38.252 2.189-56.539-2.822-35.684-9.575-66.228-34.92-81.729-67.846-17.947-36.556-15.709-82.6 5.704-117.315 19.06-32.077 52.657-54.608 89.832-60.255l2.638-0.39c1.387-0.225 2.785-0.438 4.149-0.595 4.598-0.471 9.272-0.706 13.887-0.706 18.985 0 37.74 4 54.27 11.581 30.24 13.562 54.35 38.764 66.132 69.163C779.458 655.147 777.589 693.018 761.506 724.011L761.506 724.011z" p-id="2775"></path></svg>