<?xml version="1.0" standalone="no"?><!DOCTYPE svg PUBLIC "-//W3C//DTD SVG 1.1//EN" "http://www.w3.org/Graphics/SVG/1.1/DTD/svg11.dtd"><svg t="1608475687828" class="icon" viewBox="0 0 1024 1024" version="1.1" xmlns="http://www.w3.org/2000/svg" p-id="4105" data-spm-anchor-id="a313x.7781069.0.i14" xmlns:xlink="http://www.w3.org/1999/xlink" width="200" height="200"><defs><style type="text/css"></style></defs><path d="M764.1 902.6c-0.3-11.9-9.9-21.3-21.8-21.3h-0.5c-12 0.3-21.5 10.2-21.3 22.2l0.9 42-346.9 30.3-12-78.4 179.9-15.7c12-1 20.8-11.6 19.8-23.6-1-12-11.7-20.8-23.6-19.8l-203.1 17.8c-6 0.5-11.5 3.5-15.2 8.2-3.7 4.7-5.3 10.8-4.4 16.7l18.7 121.5c1.6 10.7 10.8 18.5 21.5 18.5 0.7 0 1.3 0 1.9-0.1L745.5 987c11.4-1 20.1-10.7 19.9-22.1l-1.3-62.3z" fill="#4F6EF2" p-id="4106" data-spm-anchor-id="a313x.7781069.0.i19" class="selected"></path><path d="M331.7 756.4c-3.7 13-9.8 25.3-17.9 36.3-3 4.1-4.6 9.3-4.1 14.7 1 12 11.6 20.8 23.6 19.8l403.2-35.3c5-0.4 10-2.7 13.8-6.6 8.3-8.7 8.1-22.4-0.6-30.8-9.8-9.5-18-20.6-23.9-32.7-3-6.1-5.3-12.4-7.1-18.8-0.9-3.2-1.6-6.5-2.2-9.8-0.6-3.1-1-7.1-1.3-9.5-0.3-4.3-0.5-7.9-0.4-10.6 0-3.3 0.2-6.7 0.5-10 0.7-6.7 1.9-13.3 3.8-19.8 3.7-12.9 9.9-25.3 17.9-36.3 3-4.1 4.6-9.3 4.1-14.7l-2.4-27.3-1.9-26.9-3.7-54.6-7.4-109.3-14.8-218.6v-0.5c-1.1-12-11.6-20.8-23.6-19.7L349 165.3 336.4 22.8c-1-12-11.6-20.8-23.6-19.8-12 1-20.8 11.6-19.8 23.6l14.3 163.9c1 11.8 11.4 20.5 23.2 19.5l4-0.3 334.3-29 13.3 196.4 7.4 109.3 3.7 54.6 2 27.7L697 589c-8.5 13.1-15.5 27.1-19.9 42.2-2.6 9-4.4 18.3-5.3 27.6-0.4 4.7-0.7 9.3-0.7 14.1 0 5.4 0.2 9.8 0.5 13.5 0.5 5.7 1.1 9.6 1.9 14.4 0.9 4.6 1.9 9.2 3.1 13.7 2.5 9.1 5.9 17.9 10 26.3 1.9 3.9 4.5 7.3 6.7 11l-324.6 28.4c1.5-4 3.5-7.9 4.7-12 2.6-9 4.4-18.3 5.3-27.6 0.4-4.7 0.7-9.3 0.7-14.1 0-5.6-0.2-9.2-0.6-14-2.8-34.5-18.6-67.1-42-92.1l-3.3-35.6-4.5-42.2-9.1-84.3-18.1-168.6c-1.3-11.9-12-20.6-23.9-19.3-11.9 1.3-20.6 12-19.3 24L276.7 463l9.1 84.3 4.5 42.2 3.8 41.8v0.2c0.5 5 2.7 9.9 6.6 13.6 19.8 18.9 32.4 44.4 34.7 71.3l0.3 5.5 0.1 4.6c0 3.3-0.2 6.7-0.5 10-0.5 6.8-1.8 13.4-3.6 19.9z" fill="" p-id="4107"></path><path d="M620.2 235.4l-269 23.5L378 473.4l253-22.1-10.8-215.9zM410.9 432.6L393.5 293l191-16.7 7.1 140.5-180.7 15.8z" fill="#4F6EF2" p-id="4108" data-spm-anchor-id="a313x.7781069.0.i15" class="selected"></path></svg>