<?xml version="1.0" standalone="no"?><!DOCTYPE svg PUBLIC "-//W3C//DTD SVG 1.1//EN" "http://www.w3.org/Graphics/SVG/1.1/DTD/svg11.dtd"><svg t="1606101077077" class="icon" viewBox="0 0 1024 1024" version="1.1" xmlns="http://www.w3.org/2000/svg" p-id="16134" xmlns:xlink="http://www.w3.org/1999/xlink" width="200" height="200"><defs><style type="text/css"></style></defs><path d="M738.304 529.03424a168.448 168.448 0 1 0-168.448 168.58112 168.51456 168.51456 0 0 0 168.448-168.58112z" fill="#F4CA1C" p-id="16135"></path><path d="M512 241.95072a173.11232 173.11232 0 1 0 172.95872 173.11232A173.2352 173.2352 0 0 0 512 241.95072z m0 274.19136a101.07904 101.07904 0 1 1 100.98688-101.07904A101.15072 101.15072 0 0 1 512 516.14208z m255.6416-366.90432A365.74208 365.74208 0 0 0 497.664 46.37696a369.02912 369.02912 0 0 0-199.5776 669.184 8.52992 8.52992 0 0 1 3.76832 6.93248v67.29216a80.4864 80.4864 0 0 0 80.35328 80.4352h259.584a80.4864 80.4864 0 0 0 80.35328-80.4352V722.5344a9.00608 9.00608 0 0 1 4.0704-7.20896A370.04288 370.04288 0 0 0 880.64 415.06304a366.08 366.08 0 0 0-112.99328-265.82528z m-83.3024 507.49952a81.2544 81.2544 0 0 0-34.176 65.79712v67.23584a8.40192 8.40192 0 0 1-8.38656 8.40192h-259.584a8.40192 8.40192 0 0 1-8.38656-8.40192v-67.29216a80.82944 80.82944 0 0 0-33.90464-65.58208A296.96 296.96 0 0 1 500.39808 118.35904q5.8624-0.22528 11.68896-0.22528a296.78592 296.78592 0 0 1 296.58112 296.92928 297.87136 297.87136 0 0 1-124.32384 241.67424z m31.16544 249.14944H314.368a36.0192 36.0192 0 0 0 0 72.03328h401.14176a36.0192 36.0192 0 0 0 0-72.03328z" fill="#e83015" p-id="16136" data-spm-anchor-id="a313x.7781069.0.i11" class="selected"></path></svg>