<?xml version="1.0" standalone="no"?><!DOCTYPE svg PUBLIC "-//W3C//DTD SVG 1.1//EN" "http://www.w3.org/Graphics/SVG/1.1/DTD/svg11.dtd"><svg t="1608731591015" class="icon" viewBox="0 0 1024 1024" version="1.1" xmlns="http://www.w3.org/2000/svg" p-id="2553" data-spm-anchor-id="a313x.7781069.0.i5" xmlns:xlink="http://www.w3.org/1999/xlink" width="200" height="200"><defs><style type="text/css"></style></defs><path d="M377.3 990c-16.5 0-29.9-13.4-30-29.9-0.1-16.6 13.3-30 29.9-30.1l463.4-1.4h0.1c16.5 0 29.9 13.4 30 29.9 0 16.6-13.3 30-29.9 30.1L377.3 990c0.1 0 0.1 0 0 0z" fill="#4F6EF2" p-id="2554" data-spm-anchor-id="a313x.7781069.0.i4" class="selected"></path><path d="M853.6 958.5c-16.6 0-30-13.4-30-30V639c0-84.9-32.4-164.6-91.3-224.6-58.7-59.8-136.8-92.8-219.8-92.8s-161 32.9-219.8 92.8c-58.9 60-91.3 139.7-91.3 224.6v289.5c0 16.6-13.4 30-30 30s-30-13.4-30-30V639c0-50.9 9.8-100.2 29.1-146.7 18.8-45 45.5-85.3 79.5-120 34.1-34.7 73.7-61.9 117.9-81 45.8-19.7 94.5-29.7 144.6-29.7s98.8 10 144.6 29.7c44.2 19 83.9 46.3 117.9 81s60.7 75 79.4 119.9c19.3 46.5 29.1 95.9 29.1 146.7v289.5c0.1 16.6-13.3 30.1-29.9 30.1z" fill="#3A3933" p-id="2555"></path><path d="M796.8 284c-5.2 0-10.5-1.4-15.4-4.3-14.2-8.5-18.9-26.9-10.4-41.1l45.5-76.1c8.5-14.2 26.9-18.9 41.1-10.4 14.2 8.5 18.9 26.9 10.4 41.1l-45.5 76.1c-5.6 9.5-15.5 14.7-25.7 14.7zM217 284c-10.2 0-20.2-5.2-25.8-14.6l-45.5-76.1c-8.5-14.2-3.9-32.6 10.4-41.1 14.2-8.5 32.6-3.9 41.1 10.4l45.5 76.1c8.5 14.2 3.9 32.6-10.4 41.1-4.7 2.8-10 4.2-15.3 4.2zM514 164.9c-16.3 0-29.7-13-30-29.4l-1.4-70.7c-0.3-16.6 12.8-30.3 29.4-30.6h0.6c16.3 0 29.7 13 30 29.4l1.4 70.7c0.3 16.6-12.8 30.3-29.4 30.6h-0.6zM345.1 614.8c-1.8 0-3.5-0.2-5.3-0.5-16.3-2.9-27.2-18.5-24.3-34.8 8.3-46.4 34.2-86.8 72.8-113.8 38.7-27 85.6-37.2 132-29 11.9 2.1 23.6 5.5 34.7 10 15.4 6.2 22.8 23.6 16.7 39s-23.6 22.8-39 16.7c-7.4-3-15.1-5.2-22.9-6.6-30.6-5.5-61.6 1.3-87.1 19.1-25.5 17.8-42.6 44.5-48.1 75.1-2.6 14.6-15.2 24.8-29.5 24.8z" fill="#4F6EF2" p-id="2556" data-spm-anchor-id="a313x.7781069.0.i0" class="selected"></path></svg>