<?xml version="1.0" standalone="no"?><!DOCTYPE svg PUBLIC "-//W3C//DTD SVG 1.1//EN" "http://www.w3.org/Graphics/SVG/1.1/DTD/svg11.dtd"><svg t="1606101216554" class="icon" viewBox="0 0 1024 1024" version="1.1" xmlns="http://www.w3.org/2000/svg" p-id="16960" xmlns:xlink="http://www.w3.org/1999/xlink" width="200" height="200"><defs><style type="text/css"></style></defs><path d="M713.9328 329.41568a161.1008 161.1008 0 1 0-161.1008 160.65536 160.87552 160.87552 0 0 0 161.1008-160.65536z" fill="#F4CA1C" p-id="16961" data-spm-anchor-id="a313x.7781069.0.i17" class=""></path><path d="M597.504 893.90592H193.65888a47.52896 47.52896 0 0 1-37.64224-18.28864 48.34304 48.34304 0 0 1-8.84736-41.82528 391.71072 391.71072 0 0 1 558.99648-252.01664 34.34496 34.34496 0 1 0 31.66208-60.95872 455.8592 455.8592 0 0 0-73.05728-29.95712 239.85664 239.85664 0 1 0-276.40832-0.07168 457.856 457.856 0 0 0-308.00896 326.43072A116.82304 116.82304 0 0 0 193.65888 962.56H597.504a34.304 34.304 0 1 0 0-68.65408zM355.60448 295.51104a171.008 171.008 0 1 1 171.008 170.53696 170.97216 170.97216 0 0 1-171.008-170.53696z m508.57472 493.12768l72.92928-72.73472a34.37056 34.37056 0 1 0-48.67584-48.5376l-72.92928 72.7296-72.9344-72.7296a34.37056 34.37056 0 1 0-48.67584 48.5376l72.9344 72.73472-72.9344 72.704a34.37056 34.37056 0 0 0 48.67584 48.54272l72.9344-72.73472 72.92928 72.73472a34.37056 34.37056 0 0 0 48.67584-48.54272z" fill="#e83015" p-id="16962" data-spm-anchor-id="a313x.7781069.0.i18" class="selected"></path></svg>