<?xml version="1.0" standalone="no"?><!DOCTYPE svg PUBLIC "-//W3C//DTD SVG 1.1//EN" "http://www.w3.org/Graphics/SVG/1.1/DTD/svg11.dtd"><svg t="1608476879302" class="icon" viewBox="0 0 1024 1024" version="1.1" xmlns="http://www.w3.org/2000/svg" p-id="5514" xmlns:xlink="http://www.w3.org/1999/xlink" width="200" height="200"><defs><style type="text/css"></style></defs><path d="M512 554.666667a234.666667 234.666667 0 1 1 0-469.333334 234.666667 234.666667 0 0 1 0 469.333334z m0-42.666667a192 192 0 1 0 0-384 192 192 0 0 0 0 384z" fill="#4E4E4E" p-id="5515"></path><path d="M512 554.666667h-85.333333c-117.802667 0-213.333333 138.197333-213.333334 256v42.666666h298.666667v42.666667H170.666667v-85.333333c0-141.397333 114.602667-298.666667 256-298.666667h85.333333v42.666667z" fill="#4E4E4E" p-id="5516"></path><path d="M597.333333 640h256v42.666667h-256zM597.333333 682.666667h42.666667v42.666666h-42.666667zM810.666667 682.666667h42.666666v42.666666h-42.666666zM597.333333 725.333333h256v42.666667h-256zM512 853.333333h384v42.666667h-384z" fill="#4F6EF2" p-id="5517" data-spm-anchor-id="a313x.7781069.0.i21" class="selected"></path></svg>