<?xml version="1.0" standalone="no"?><!DOCTYPE svg PUBLIC "-//W3C//DTD SVG 1.1//EN" "http://www.w3.org/Graphics/SVG/1.1/DTD/svg11.dtd"><svg t="1606100883668" class="icon" viewBox="0 0 1024 1024" version="1.1" xmlns="http://www.w3.org/2000/svg" p-id="11772" data-spm-anchor-id="a313x.7781069.0.i0" xmlns:xlink="http://www.w3.org/1999/xlink" width="200" height="200"><defs><style type="text/css"></style></defs><path d="M776.66304 916.34688c0-111.0016-155.17184-200.98048-346.58304-200.98048s-346.58304 89.97888-346.58304 200.98048h693.16608z" fill="#F4CA1C" p-id="11773"></path><path d="M799.54944 526.07488a211.10272 211.10272 0 0 0-126.33088-380.928 32.71168 32.71168 0 1 0 0 65.42336 145.85344 145.85344 0 0 1 19.42528 290.47808 309.06368 309.06368 0 0 0-15.13472-0.384 33.65888 33.65888 0 1 0-4.29056 67.13344q10.69056 0 21.12-1.05472a239.6672 239.6672 0 0 1 223.0528 238.40256 32.82432 32.82432 0 0 0 65.64864 0 304.83968 304.83968 0 0 0-183.49056-279.07072z m-252.53376 11.776a236.928 236.928 0 1 0-253.54752 0A378.66496 378.66496 0 0 0 40.96 894.00832a32.82432 32.82432 0 0 0 65.64864 0 313.63072 313.63072 0 0 1 627.26144 0 32.82432 32.82432 0 0 0 65.64864 0 378.65984 378.65984 0 0 0-252.50304-356.18304zM248.96512 338.5088a171.27424 171.27424 0 1 1 171.27424 170.69056 171.17184 171.17184 0 0 1-171.27424-170.69056z" fill="#e83015" p-id="11774" data-spm-anchor-id="a313x.7781069.0.i1" class="selected"></path></svg>