<?xml version="1.0" standalone="no"?><!DOCTYPE svg PUBLIC "-//W3C//DTD SVG 1.1//EN" "http://www.w3.org/Graphics/SVG/1.1/DTD/svg11.dtd"><svg t="1606100980424" class="icon" viewBox="0 0 1024 1024" version="1.1" xmlns="http://www.w3.org/2000/svg" p-id="13904" data-spm-anchor-id="a313x.7781069.0.i5" xmlns:xlink="http://www.w3.org/1999/xlink" width="200" height="200"><defs><style type="text/css"></style></defs><path d="M688.36864 509.44c0-101.84192-80.896-184.40192-180.67456-184.40192S327.00928 407.59808 327.00928 509.44s80.896 184.40192 180.67968 184.40192 180.67968-82.56 180.67968-184.40192z" fill="#F4CA1C" p-id="13905"></path><path d="M139.88352 420.15744a33.14176 33.14176 0 0 1-10.63424-1.75616 34.64192 34.64192 0 0 1-21.43232-43.57632C164.7104 199.6288 324.49536 81.92 505.4208 81.92c179.968 0 339.4816 116.89472 396.93824 290.87744a34.65728 34.65728 0 0 1-21.21728 43.68896 33.6128 33.6128 0 0 1-42.79296-21.66272c-48.18432-145.92-181.98016-243.94752-332.928-243.94752-151.75168 0-285.7728 98.71872-333.48608 245.64224a33.85856 33.85856 0 0 1-32.0512 23.63904zM505.4208 936.96c-185.61024 0-346.624-121.66656-400.67072-302.75584a34.60608 34.60608 0 0 1 22.46144-43.008 33.67424 33.67424 0 0 1 42.14784 22.9376c45.32736 151.8592 180.3776 253.89056 336.06144 253.89056 155.008 0 293.65248-105.93792 337.14688-257.62304a33.68448 33.68448 0 0 1 41.9072-23.40864 34.60096 34.60096 0 0 1 22.92224 42.76736c-51.84512 180.87424-217.16992 307.2-401.97632 307.2z m-44.8256-250.56768a33.55648 33.55648 0 0 1-31.744-22.73792l-67.584-190.52032-48.04608 57.96864a33.47968 33.47968 0 0 1-25.78432 12.2112H59.392a34.4832 34.4832 0 0 1 0-68.95616h212.35712l75.61216-91.22304a33.41312 33.41312 0 0 1 31.744-11.66848 33.97632 33.97632 0 0 1 25.79456 22.20032l64.79872 182.67648 60.60032-91.92448a33.4848 33.4848 0 0 1 31.744-15.02208 33.90464 33.90464 0 0 1 27.7504 21.76512l16.18944 42.46528 34.17088-51.11808a33.5872 33.5872 0 0 1 27.89888-15.04256H954.368a34.4832 34.4832 0 0 1 0 68.95616h-268.4928l-60.24192 90.112a33.47456 33.47456 0 0 1-59.392-6.92736l-16.00512-41.984-61.62944 93.53728a33.57696 33.57696 0 0 1-28.01152 15.232z" fill="#e83015" p-id="13906" data-spm-anchor-id="a313x.7781069.0.i6" class="selected"></path></svg>