<?xml version="1.0" standalone="no"?><!DOCTYPE svg PUBLIC "-//W3C//DTD SVG 1.1//EN" "http://www.w3.org/Graphics/SVG/1.1/DTD/svg11.dtd"><svg t="1608107727518" class="icon" viewBox="0 0 1024 1024" version="1.1" xmlns="http://www.w3.org/2000/svg" p-id="5969" xmlns:xlink="http://www.w3.org/1999/xlink" width="28" height="28"><defs><style type="text/css"></style></defs><path d="M607.085714 343.771429L424.228571 526.628571 343.771429 446.171429c-14.628571-7.314286-36.571429-7.314286-51.2 0-14.628571 14.628571-14.628571 43.885714 0 58.514285l102.4 102.4c14.628571 14.628571 36.571429 14.628571 51.2 0L658.285714 394.971429c14.628571-14.628571 14.628571-36.571429 0-51.2-14.628571-14.628571-36.571429-14.628571-51.2 0M475.428571 877.714286C256 877.714286 73.142857 694.857143 73.142857 475.428571S256 73.142857 475.428571 73.142857 877.714286 256 877.714286 475.428571 694.857143 877.714286 475.428571 877.714286m0-877.714286C212.114286 0 0 212.114286 0 475.428571S212.114286 950.857143 475.428571 950.857143 950.857143 738.742857 950.857143 475.428571 738.742857 0 475.428571 0" p-id="5970" fill="#77f031"></path></svg>