<?xml version="1.0" standalone="no"?><!DOCTYPE svg PUBLIC "-//W3C//DTD SVG 1.1//EN" "http://www.w3.org/Graphics/SVG/1.1/DTD/svg11.dtd"><svg t="1607506929718" class="icon" viewBox="0 0 1024 1024" version="1.1" xmlns="http://www.w3.org/2000/svg" p-id="6349" width="28" height="28" xmlns:xlink="http://www.w3.org/1999/xlink"><defs><style type="text/css"></style></defs><path d="M883.8 66.2H136.4C98.6 66.2 65 99.7 65 137.5v751.6c0 37.8 33.6 71.4 71.4 71.4H888c37.8 0 71.4-33.6 71.4-71.4V137.5c-4.3-42-33.7-71.3-75.6-71.3z m-5.2 818.7H147.3c-6 0-10.9-4.9-10.9-10.9V148.2c0-5.9 4.8-10.7 10.7-10.7h730.8c5.6 0 10.1 4.5 10.1 10.1v727.9c0 5.2-4.2 9.4-9.4 9.4z" p-id="6350" fill="#e83015"></path><path d="M438.7 666.6c8.4 8.4 16.8 8.4 25.2 8.4s16.8-4.2 25.2-8.4l260.3-260.3c12.6-12.6 12.6-37.8 0-50.4-12.6-12.6-37.8-12.6-50.4 0L463.9 591 321.1 448.2c-12.6-12.6-37.8-12.6-50.4 0-12.6 12.6-12.6 37.8 0 50.4l168 168z" p-id="6351" fill="#e83015"></path></svg>