<?xml version="1.0" standalone="no"?><!DOCTYPE svg PUBLIC "-//W3C//DTD SVG 1.1//EN" "http://www.w3.org/Graphics/SVG/1.1/DTD/svg11.dtd"><svg t="1608044989954" class="icon" viewBox="0 0 1024 1024" version="1.1" xmlns="http://www.w3.org/2000/svg" p-id="4208" xmlns:xlink="http://www.w3.org/1999/xlink" width="28" height="28"><defs><style type="text/css"></style></defs><path d="M512 960C264.97 960 64 759.03 64 512S264.97 64 512 64s448 200.97 448 448-200.97 448-448 448z m0-843.29c-217.97 0-395.29 177.33-395.29 395.29S294.03 907.29 512 907.29 907.29 729.97 907.29 512 729.97 116.71 512 116.71z" fill="#8a8a8a" p-id="4209"></path><path d="M512 632.82c-13.49 0-26.99-5.14-37.26-15.42l-192.2-192.18c-10.29-10.29-10.29-26.98 0-37.26 10.28-10.29 26.97-10.29 37.26 0L512 580.14l192.19-192.18c10.28-10.29 26.98-10.29 37.26 0 10.29 10.29 10.29 26.98 0 37.26L549.27 617.41C539 627.68 525.5 632.82 512 632.82z" fill="#8a8a8a" p-id="4210"></path></svg>