<?xml version="1.0" standalone="no"?><!DOCTYPE svg PUBLIC "-//W3C//DTD SVG 1.1//EN" "http://www.w3.org/Graphics/SVG/1.1/DTD/svg11.dtd"><svg t="1605935695733" class="icon" viewBox="0 0 1024 1024" version="1.1" xmlns="http://www.w3.org/2000/svg" p-id="2752" xmlns:xlink="http://www.w3.org/1999/xlink" width="28" height="28"><defs><style type="text/css"></style></defs><path d="M512 0c-281.6 0-512 230.4-512 512s230.4 512 512 512 512-230.4 512-512-230.4-512-512-512z m0 938.666667c-234.666667 0-426.666667-192-426.666667-426.666667s192-426.666667 426.666667-426.666667 426.666667 192 426.666667 426.666667-192 426.666667-426.666667 426.666667z" p-id="2753" fill="#ffffff"></path><path d="M793.6 396.8c-17.066667-17.066667-42.666667-17.066667-59.733333 0l-221.866667 221.866667-221.866667-221.866667c-17.066667-17.066667-42.666667-17.066667-59.733333 0-17.066667 17.066667-17.066667 42.666667 0 59.733333l251.733333 251.733334c17.066667 17.066667 42.666667 17.066667 59.733334 0l251.733333-251.733334c17.066667-12.8 17.066667-42.666667 0-59.733333z" p-id="2754" fill="#ffffff"></path></svg>